<?xml version="1.0" encoding="utf-8"?>
<!-- Generator: Adobe Illustrator 26.0.3, SVG Export Plug-In . SVG Version: 6.00 Build 0)  -->
<svg version="1.1" id="Layer_1" xmlns="http://www.w3.org/2000/svg" xmlns:xlink="http://www.w3.org/1999/xlink" x="0px" y="0px"
	 viewBox="0 0 100 100" style="enable-background:new 0 0 100 100;" xml:space="preserve">
<g>
	<path d="M75.6,15.9c-4.1,0-7.5,3.3-7.5,7.5v14.1c0,4.2-3.1,7.7-7.1,8.4V17.7c0-5.8-4.7-10.5-10.5-10.5S40,11.9,40,17.7v40.4
		c-4-0.7-7.1-4.2-7.1-8.4V35.6c0-4.1-3.3-7.5-7.5-7.5s-7.5,3.3-7.5,7.5v14.1c0,12.5,9.8,22.7,22.1,23.4v17h-4.1
		c-0.8,0-1.4,0.6-1.4,1.4c0,0.8,0.6,1.4,1.4,1.4h29.2c0.8,0,1.4-0.6,1.4-1.4c0-0.8-0.6-1.4-1.4-1.4H61V60.9
		C73.3,60.2,83.1,50,83.1,37.5V23.4C83.1,19.3,79.7,15.9,75.6,15.9z M80.3,37.5c0,11.4-9.3,20.7-20.7,20.7c-0.8,0-1.4,0.6-1.4,1.4
		v30.5H42.7V71.8c0-0.8-0.6-1.4-1.4-1.4c-11.4,0-20.7-9.3-20.7-20.7V35.6c0-2.6,2.1-4.7,4.7-4.7c2.6,0,4.7,2.1,4.7,4.7v14.1
		c0,5.7,4.3,10.5,9.9,11.1v2.4c0,0.8,0.6,1.4,1.4,1.4s1.4-0.6,1.4-1.4V17.7c0-4.3,3.5-7.8,7.8-7.8s7.8,3.5,7.8,7.8v33.4
		c0,0.8,0.6,1.4,1.4,1.4s1.4-0.6,1.4-1.4v-2.4c5.5-0.7,9.9-5.4,9.9-11.1V23.4c0-2.6,2.1-4.7,4.7-4.7s4.7,2.1,4.7,4.7L80.3,37.5
		L80.3,37.5z"/>
	<path d="M50.5,80.1c-0.8,0-1.4,0.6-1.4,1.4v2.7c0,0.8,0.6,1.4,1.4,1.4s1.4-0.6,1.4-1.4v-2.7C51.9,80.7,51.3,80.1,50.5,80.1z"/>
	<path d="M54.2,34.5c-0.8,0-1.4,0.6-1.4,1.4v2.7c0,0.8,0.6,1.4,1.4,1.4c0.8,0,1.4-0.6,1.4-1.4v-2.7C55.5,35.1,54.9,34.5,54.2,34.5z"
		/>
	<path d="M46.8,25.4c-0.8,0-1.4,0.6-1.4,1.4v2.7c0,0.8,0.6,1.4,1.4,1.4s1.4-0.6,1.4-1.4v-2.7C48.2,26,47.6,25.4,46.8,25.4z"/>
	<path d="M75.6,28.1c-0.8,0-1.4,0.6-1.4,1.4v2.7c0,0.8,0.6,1.4,1.4,1.4S77,33,77,32.2v-2.7C77,28.8,76.4,28.1,75.6,28.1z"/>
	<path d="M25.4,44.5c-0.8,0-1.4,0.6-1.4,1.4v2.7c0,0.8,0.6,1.4,1.4,1.4s1.4-0.6,1.4-1.4v-2.7C26.8,45.1,26.1,44.5,25.4,44.5z"/>
</g>
</svg>
